<?xml version="1.0" encoding="utf-8"?>
<!-- Generator: Adobe Illustrator 27.5.0, SVG Export Plug-In . SVG Version: 6.00 Build 0)  -->
<svg version="1.1" xmlns="http://www.w3.org/2000/svg" xmlns:xlink="http://www.w3.org/1999/xlink" x="0px" y="0px"
	 viewBox="0 0 750 500" style="enable-background:new 0 0 750 500;" xml:space="preserve">
<g id="BACKGROUND">
	<rect style="fill:#FFFDFD;" width="750" height="500"/>
</g>
<g id="OBJECTS">
	<g>
		<g style="opacity:0.55;">
			<path style="fill:#3A3A3A;" d="M632.754,302.173l-0.531-0.598c0.152-0.135,14.888-13.897-7.489-46.95
				c-12.631-18.659-14.065-36.374-13.043-47.951c1.265-14.322,6.614-25.48,11.199-31.147c9-11.124,4.789-22.519,4.746-22.632
				l0.747-0.286c0.045,0.118,4.416,11.944-4.87,23.422c-7.206,8.907-22.328,42.382,1.884,78.146
				c6.559,9.688,14.026,23.917,12.352,36.68C636.738,298.562,632.916,302.029,632.754,302.173z"/>
		</g>
		<path style="fill:#FDC14C;" d="M628.009,152.752c0,0-5.232,3.769-1.967,4.229c3.266,0.46,7.579,3.221,7.327,0.835
			c-0.252-2.386-0.588-5.568-0.588-5.568s20.217-14.198,20.88-38.396c0.663-24.198-23.999-36.876-36.761-13.01
			C604.138,124.709,628.009,152.752,628.009,152.752z"/>
	</g>
	<g>
		<g style="opacity:0.55;">
			<path style="fill:#3A3A3A;" d="M480.15,296.643l-0.637-0.717c0.182-0.162,17.854-16.666-8.981-56.305
				c-15.148-22.377-16.867-43.622-15.642-57.505c1.516-17.175,7.932-30.557,13.431-37.353c10.793-13.34,5.743-27.006,5.691-27.142
				l0.895-0.343c0.055,0.142,5.296,14.323-5.841,28.088c-8.642,10.682-26.777,50.826,2.26,93.717
				c7.865,11.619,16.821,28.682,14.814,43.988C484.929,292.312,480.345,296.471,480.15,296.643z"/>
		</g>
		<path style="fill:#5D344F;" d="M474.46,117.45c0,0-6.275,4.52-2.358,5.071s9.089,3.863,8.786,1.002
			c-0.302-2.862-0.705-6.677-0.705-6.677s24.245-17.027,25.04-46.046c0.795-29.02-28.781-44.224-44.086-15.602
			C445.833,83.82,474.46,117.45,474.46,117.45z"/>
	</g>
	<g>
		<g style="opacity:0.55;">
			<path style="fill:#3A3A3A;" d="M324.315,366.313l0.637-0.717c-0.182-0.162-17.854-16.666,8.981-56.305
				c15.148-22.377,16.867-43.622,15.642-57.505c-1.517-17.175-7.932-30.557-13.431-37.353c-10.793-13.34-5.743-27.006-5.691-27.142
				l-0.895-0.343c-0.055,0.142-5.296,14.323,5.841,28.088c8.642,10.682,26.776,50.826-2.26,93.717
				c-7.865,11.619-16.821,28.682-14.814,43.988C319.537,361.982,324.121,366.141,324.315,366.313z"/>
		</g>
		<path style="fill:#FC5673;" d="M330.005,187.12c0,0,6.275,4.52,2.358,5.072c-3.916,0.551-9.089,3.863-8.786,1.002
			c0.302-2.862,0.705-6.677,0.705-6.677s-24.245-17.027-25.04-46.046s28.781-44.224,44.086-15.602
			C358.633,153.489,330.005,187.12,330.005,187.12z"/>
	</g>
	<g>
		<g style="opacity:0.55;">
			<path style="fill:#3A3A3A;" d="M110.017,349.639l0.75-0.598c-0.152-0.191-14.744-19.472,18.469-53.942
				c18.749-19.46,24.072-40.099,25.237-53.987c1.44-17.182-2.595-31.463-6.851-39.099c-8.355-14.988-1.045-27.59-0.97-27.715
				l-0.824-0.491c-0.078,0.13-7.665,13.208,0.956,28.673c6.69,12.001,17.699,54.654-18.239,91.953
				c-9.735,10.104-21.474,25.386-22.111,40.81C106.049,344.555,109.855,349.436,110.017,349.639z"/>
		</g>
		<path style="fill:#2D6C8C;" d="M146.239,174.053c0,0,5.41,5.526,1.457,5.4c-3.953-0.126-9.615,2.254-8.828-0.514
			c0.786-2.768,1.835-6.459,1.835-6.459s-20.979-20.919-16.805-49.648s35.913-38.656,46.103-7.84
			C180.191,145.808,146.239,174.053,146.239,174.053z"/>
	</g>
	<g>
		<path style="fill:#2D6C8C;" d="M239.001,115.351c4.299,1.131,8.598,2.262,12.897,3.393c1.869,0.492,2.666-2.401,0.798-2.893
			c-4.299-1.131-8.598-2.262-12.897-3.393C237.929,111.967,237.132,114.86,239.001,115.351L239.001,115.351z"/>
	</g>
	<g>
		<path style="fill:#2D6C8C;" d="M386.77,136.532c4.785-1.773,8.733-4.714,11.837-8.756c1.175-1.53-1.429-3.026-2.59-1.514
			c-2.586,3.366-6.07,5.905-10.044,7.377C384.177,134.305,384.954,137.205,386.77,136.532L386.77,136.532z"/>
	</g>
	<g>
		<path style="fill:#2D6C8C;" d="M392.249,317.17c2.886,2.543,6.286,3.991,10.113,4.349c1.921,0.18,1.909-2.821,0-3
			c-2.99-0.28-5.741-1.488-7.992-3.47C392.927,313.777,390.797,315.891,392.249,317.17L392.249,317.17z"/>
	</g>
	<g>
		<path style="fill:#2D6C8C;" d="M215.622,335.312c2.279,1.112,4.557,2.224,6.836,3.337c1.728,0.844,3.251-1.743,1.514-2.591
			c-2.279-1.112-4.557-2.224-6.836-3.337C215.408,331.878,213.885,334.464,215.622,335.312L215.622,335.312z"/>
	</g>
	<g>
		<path style="fill:#2D6C8C;" d="M565.588,273.761c1.001-1.333,2.001-2.666,3.002-3.999c0.487-0.648,0.104-1.676-0.538-2.052
			c-0.767-0.449-1.564-0.112-2.052,0.538c-1.001,1.333-2.001,2.666-3.002,3.999c-0.487,0.648-0.104,1.676,0.538,2.052
			C564.303,274.748,565.1,274.411,565.588,273.761L565.588,273.761z"/>
	</g>
	<g>
		<path style="fill:#2D6C8C;" d="M581.414,117.02c1.363,1.642,2.726,3.284,4.089,4.926c1.234,1.487,3.346-0.646,2.121-2.121
			c-1.363-1.642-2.726-3.284-4.089-4.926C582.301,113.412,580.189,115.544,581.414,117.02L581.414,117.02z"/>
	</g>
	<g>
		<path style="fill:#2D6C8C;" d="M368.603,210.35c1.333,1,2.667,2,4,3c0.649,0.486,1.676,0.105,2.052-0.538
			c0.449-0.767,0.112-1.565-0.538-2.052c-1.333-1-2.667-2-4-3c-0.649-0.486-1.676-0.105-2.052,0.538
			C367.616,209.065,367.953,209.863,368.603,210.35L368.603,210.35z"/>
	</g>
	<g>
		<path style="fill:#2D6C8C;" d="M503.603,262.35c1,0.667,2,1.333,3,2c0.674,0.45,1.661,0.132,2.052-0.538
			c0.43-0.736,0.138-1.602-0.538-2.052c-1-0.667-2-1.333-3-2c-0.674-0.449-1.66-0.132-2.052,0.538
			C502.635,261.033,502.927,261.9,503.603,262.35L503.603,262.35z"/>
	</g>
	<g>
		<path style="fill:#2D6C8C;" d="M71.432,325.128c1.938-1.736,3.876-3.472,5.813-5.208c1.441-1.291-0.686-3.407-2.121-2.121
			c-1.938,1.736-3.876,3.472-5.813,5.208C67.869,324.298,69.997,326.413,71.432,325.128L71.432,325.128z"/>
	</g>
	<g>
		<path style="fill:#2D6C8C;" d="M83.603,182.35c1.667,1,3.333,2,5,3c1.66,0.996,3.17-1.597,1.514-2.59c-1.667-1-3.333-2-5-3
			C83.457,178.764,81.947,181.357,83.603,182.35L83.603,182.35z"/>
	</g>
	<g>
		<path style="fill:#2D6C8C;" d="M200.623,152.31c1.999,1.003,3.997,2.006,5.995,3.009c1.721,0.864,3.242-1.723,1.514-2.59
			c-1.999-1.003-3.997-2.006-5.996-3.009C200.416,148.856,198.895,151.443,200.623,152.31L200.623,152.31z"/>
	</g>
	<g>
		<path style="fill:#FC5673;" d="M192.36,272.555c1.93,0,1.934-3,0-3C190.43,269.555,190.426,272.555,192.36,272.555L192.36,272.555
			z"/>
	</g>
	<g>
		<path style="fill:#FC5673;" d="M371.359,355.575c2.193,0.069,4.345-0.298,6.378-1.125c1.765-0.718,0.993-3.621-0.797-2.893
			c-1.808,0.735-3.629,1.08-5.58,1.018C369.428,352.514,369.43,355.514,371.359,355.575L371.359,355.575z"/>
	</g>
	<g>
		<path style="fill:#FC5673;" d="M108.359,383.056c1.843,1.772,4.077,3.013,6.57,3.596c1.878,0.439,2.68-2.452,0.797-2.893
			c-2.005-0.469-3.759-1.396-5.246-2.824C109.088,379.596,106.964,381.714,108.359,383.056L108.359,383.056z"/>
	</g>
	<g>
		<path style="fill:#FC5673;" d="M241.065,146.812c0.333,0.667,0.667,1.333,1,2c0.362,0.724,1.386,0.928,2.052,0.538
			c0.738-0.431,0.902-1.325,0.538-2.052c-0.333-0.667-0.667-1.333-1-2c-0.362-0.724-1.386-0.928-2.052-0.538
			C240.865,145.191,240.701,146.085,241.065,146.812L241.065,146.812z"/>
	</g>
	<g>
		<path style="fill:#FC5673;" d="M524.117,298.35c2.333-1,4.667-2,7-3c1.769-0.758,0.243-3.343-1.514-2.59c-2.333,1-4.667,2-7,3
			C520.834,296.518,522.36,299.103,524.117,298.35L524.117,298.35z"/>
	</g>
	<g>
		<path style="fill:#FC5673;" d="M418.144,132.278c1.022,0.977,2.045,1.953,3.067,2.93c1.396,1.334,3.521-0.785,2.121-2.121
			c-1.022-0.977-2.045-1.953-3.067-2.93C418.869,128.823,416.745,130.941,418.144,132.278L418.144,132.278z"/>
	</g>
	<g>
		<path style="fill:#FC5673;" d="M579.86,151.055c0,2,0,4,0,6c0,1.93,3,1.934,3,0c0-2,0-4,0-6
			C582.86,149.125,579.86,149.121,579.86,151.055L579.86,151.055z"/>
	</g>
	<g>
		<path style="fill:#FC5673;" d="M543.914,255.454c0.333,1,0.667,2,1,3c0.256,0.768,1.034,1.27,1.845,1.048
			c0.751-0.206,1.305-1.073,1.048-1.845c-0.333-1-0.667-2-1-3c-0.256-0.768-1.034-1.27-1.845-1.048
			C544.21,253.815,543.656,254.682,543.914,255.454L543.914,255.454z"/>
	</g>
	<g>
		<path style="fill:#FC5673;" d="M661.628,372.312c1.004,0.661,2.007,1.323,3.01,1.984c0.677,0.446,1.659,0.134,2.052-0.538
			c0.429-0.733,0.14-1.605-0.538-2.052c-1.003-0.661-2.007-1.323-3.01-1.984c-0.677-0.446-1.659-0.134-2.052,0.538
			C660.661,370.992,660.95,371.865,661.628,372.312L661.628,372.312z"/>
	</g>
	<g>
		<path style="fill:#FC5673;" d="M682.117,273.35c0.667-0.333,1.333-0.667,2-1c0.724-0.362,0.928-1.386,0.538-2.052
			c-0.431-0.738-1.325-0.902-2.052-0.538c-0.667,0.333-1.333,0.667-2,1c-0.724,0.362-0.928,1.386-0.538,2.052
			C680.496,273.55,681.39,273.714,682.117,273.35L682.117,273.35z"/>
	</g>
	<g>
		<path style="fill:#FDC14C;" d="M248.507,195.518c3.611,2.086,6.97,4.499,10.083,7.275c1.437,1.281,3.566-0.833,2.121-2.121
			c-3.3-2.942-6.862-5.533-10.691-7.744C248.347,191.96,246.834,194.551,248.507,195.518L248.507,195.518z"/>
	</g>
	<g>
		<path style="fill:#FDC14C;" d="M308.654,81.283c1.333,1.001,2.666,2.001,3.999,3.002c0.648,0.487,1.677,0.104,2.052-0.538
			c0.449-0.767,0.112-1.564-0.538-2.052c-1.333-1.001-2.666-2.001-3.999-3.002c-0.648-0.487-1.677-0.104-2.052,0.538
			C307.667,79.998,308.004,80.795,308.654,81.283L308.654,81.283z"/>
	</g>
	<g>
		<path style="fill:#FDC14C;" d="M180.627,102.304c4.003,2.022,8.249,3.14,12.73,3.338c1.93,0.085,1.926-2.915,0-3
			c-3.949-0.175-7.688-1.146-11.216-2.929C180.422,98.845,178.902,101.433,180.627,102.304L180.627,102.304z"/>
	</g>
	<g>
		<path style="fill:#FDC14C;" d="M94.36,128.555c1,0,2,0,3,0c1.93,0,1.934-3,0-3c-1,0-2,0-3,0
			C92.43,125.555,92.426,128.555,94.36,128.555L94.36,128.555z"/>
	</g>
	<g>
		<path style="fill:#FDC14C;" d="M370.914,291.454c0.333,1.333,0.667,2.667,1,4c0.468,1.872,3.362,1.079,2.893-0.798
			c-0.333-1.333-0.667-2.667-1-4C373.338,288.784,370.444,289.577,370.914,291.454L370.914,291.454z"/>
	</g>
	<g>
		<path style="fill:#FDC14C;" d="M380.299,366.116c2,1.667,4,3.333,6,5c1.473,1.228,3.607-0.884,2.121-2.121c-2-1.667-4-3.333-6-5
			C380.947,362.767,378.814,364.878,380.299,366.116L380.299,366.116z"/>
	</g>
	<g>
		<path style="fill:#FDC14C;" d="M522.299,142.116c0.333,0.333,0.667,0.667,1,1c0.573,0.573,1.548,0.573,2.121,0
			c0.575-0.575,0.575-1.547,0-2.121c-0.333-0.333-0.667-0.667-1-1c-0.573-0.573-1.549-0.573-2.121,0
			C521.724,140.569,521.725,141.541,522.299,142.116L522.299,142.116z"/>
	</g>
	<g>
		<path style="fill:#FDC14C;" d="M423.299,101.116c0.667,0.667,1.333,1.333,2,2c0.573,0.573,1.548,0.573,2.121,0
			c0.575-0.575,0.575-1.547,0-2.121c-0.667-0.667-1.333-1.333-2-2c-0.573-0.573-1.548-0.573-2.121,0
			C422.724,99.569,422.725,100.541,423.299,101.116L423.299,101.116z"/>
	</g>
	<g>
		<path style="fill:#FDC14C;" d="M503.36,80.555c1.93,0,1.934-3,0-3C501.43,77.555,501.426,80.555,503.36,80.555L503.36,80.555z"/>
	</g>
	<g>
		<path style="fill:#FDC14C;" d="M567.914,77.656c-0.333,1.667-0.667,3.333-1,5c-0.377,1.885,2.514,2.692,2.893,0.798
			c0.333-1.667,0.667-3.333,1-5C571.183,76.568,568.292,75.762,567.914,77.656L567.914,77.656z"/>
	</g>
	<g>
		<path style="fill:#FDC14C;" d="M550.628,173.312c1.004,0.661,2.007,1.323,3.01,1.984c0.677,0.446,1.659,0.134,2.052-0.538
			c0.429-0.732,0.14-1.605-0.538-2.052c-1.003-0.662-2.007-1.323-3.01-1.984c-0.677-0.446-1.659-0.134-2.052,0.538
			C549.661,171.992,549.95,172.865,550.628,173.312L550.628,173.312z"/>
	</g>
	<g>
		<path style="fill:#FDC14C;" d="M489.603,160.35c1.333,0.667,2.667,1.333,4,2c1.722,0.861,3.243-1.726,1.514-2.59
			c-1.333-0.667-2.667-1.333-4-2C489.395,156.899,487.874,159.486,489.603,160.35L489.603,160.35z"/>
	</g>
	<g>
		<path style="fill:#FDC14C;" d="M671.112,333.333c-2.686,3.653-5.371,7.305-8.057,10.958c-1.145,1.557,1.457,3.055,2.59,1.514
			c2.686-3.653,5.371-7.305,8.057-10.958C674.847,333.29,672.245,331.792,671.112,333.333L671.112,333.333z"/>
	</g>
	<g>
		<path style="fill:#FDC14C;" d="M579.299,368.116c1,1,2,2,3,3c1.367,1.367,3.489-0.754,2.121-2.121c-1-1-2-2-3-3
			C580.054,364.627,577.932,366.748,579.299,368.116L579.299,368.116z"/>
	</g>
	<g>
		<g>
			<defs>
				<path id="XMLID_18_" d="M434.615,413.327c-0.253,0.471-3.646,10.189-4.117,9.936c-0.301-0.161-2.59,1.081-4.209,2.002
					c-0.931,0.529-1.311,1.673-0.879,2.653c1.851,4.2,6.685,14.786,9.032,16.288c2.938,1.881,10.805,3.065,10.73,1.507
					c-0.075-1.558-5.842-4.957-5.842-4.957l-4.117-14.962l6.038-10.12l-6.273-2.456"/>
			</defs>
			<use xlink:href="#XMLID_18_"  style="overflow:visible;fill:#FECEAC;"/>
			<clipPath id="XMLID_00000178915888567770127180000005538773212218245271_">
				<use xlink:href="#XMLID_18_"  style="overflow:visible;"/>
			</clipPath>
			<path style="clip-path:url(#XMLID_00000178915888567770127180000005538773212218245271_);fill:#F4EAE9;" d="M430.578,416.323
				c0,0,7.038,4.991,9.977,6.872c2.938,1.88,10.292,24.956,10.292,24.956l-19.171,0.644l-11.655-15.06L430.578,416.323z"/>
			<path style="clip-path:url(#XMLID_00000178915888567770127180000005538773212218245271_);fill:#563219;" d="M426.771,415.495
				c-0.178,2.03,4.324,7.786,11.978,12.197c7.654,4.411,11.667,22.961,11.667,22.961l-22.363-0.765l-9.045-14.267L426.771,415.495z"
				/>
		</g>
		<g>
			<defs>
				<path id="XMLID_17_" d="M503.291,398.602c0.029,0.53,7.972,9.65,7.972,9.65s4.634,2.133,5.222,3.163
					c0.588,1.03-15.918,19.475-16.256,18.166c-0.338-1.309,6.224-17.078,5.944-17.328c-0.28-0.25-8.134-7.782-8.134-7.782
					L503.291,398.602z"/>
			</defs>
			<use xlink:href="#XMLID_17_"  style="overflow:visible;fill:#FECEAC;"/>
			<clipPath id="XMLID_00000031174023561034366610000012536439944160569729_">
				<use xlink:href="#XMLID_17_"  style="overflow:visible;"/>
			</clipPath>
			<path style="clip-path:url(#XMLID_00000031174023561034366610000012536439944160569729_);fill:#F4EAE9;" d="M507.498,402.618
				c0,0-5.281,5.339-7.841,7.075c-2.56,1.736-5.18,21.535-5.18,21.535l6.487,6.811l20.39-25.035l-1.22-7.635L507.498,402.618z"/>
			<path style="clip-path:url(#XMLID_00000031174023561034366610000012536439944160569729_);fill:#563219;" d="M511.41,406.119
				c0,0-0.545,4.545-8.12,6.825c-7.576,2.28-5.238,20.476-5.238,20.476l22.302-19.298L511.41,406.119z"/>
		</g>
		<path style="fill:#FECEAC;" d="M437.554,190.042c0,0-29.344-5.057-53.655,11.315c-1.589,1.07-2.161,3.137-1.402,4.896
			c3.23,7.486,13.241,18.778,26.911,26.752c0,0-3.645-12.531-13.794-24.137c-0.41-0.469,2.59,1.579,3.211,1.63
			c7.527,0.619,30.576-0.884,42.176-11.47"/>
		<path style="fill:#FECEAC;" d="M478.409,190.475c0,0,28.296-11.949,55.642-2.999c2.393,0.783,3.866,3.203,3.459,5.687
			c-1.421,8.663-6.342,28.304-22.36,36.444c0,0,2.051-19.139,13.329-33.835c0,0-32.81,12.987-49.215,4.443"/>
		<path style="fill:#FECEAC;" d="M435.693,190.343c-0.807,0.264-1.879,24.96,4.026,39.453c5.905,14.493,13.956,29.522,12.882,38.379
			c0,0,21.251,5.356,28.229-0.817c0,0,8.003-62.79-4.343-79.698C476.487,187.66,449.648,185.781,435.693,190.343z"/>
		<g>
			<defs>
				<path id="XMLID_16_" d="M506.992,398.168l-39.117-50.215c6.504-18.462,12.633-35.446,15.963-43.608
					c9.322-22.854-3.007-36.988-3.007-36.988s-22.094,1.533-28.229,0.817c-7.569-0.883-6.353,75.564-6.353,75.564l-17.141,71.871
					l14.134,3.609c0,0,8.322-24.487,17.66-51.335c9.998,11.701,36.167,40.208,36.167,40.208L506.992,398.168z"/>
			</defs>
			<use xlink:href="#XMLID_16_"  style="overflow:visible;fill:#2D6C8C;"/>
			<clipPath id="XMLID_00000072972653814420455970000014660458886566513586_">
				<use xlink:href="#XMLID_16_"  style="overflow:visible;"/>
			</clipPath>
			
				<polygon style="opacity:0.31;clip-path:url(#XMLID_00000072972653814420455970000014660458886566513586_);fill:#8D4063;" points="
				462.838,379.624 460.902,367.884 467.875,347.954 478.559,347.839 515.129,396.712 500.774,411.75 476.85,396.029 			"/>
			<path style="opacity:0.31;clip-path:url(#XMLID_00000072972653814420455970000014660458886566513586_);fill:#8D4063;" d="
				M436.863,357.409l9.385-13.67l14.881-56.393c0,0-13.329,25.974-19.481,11.278C435.496,283.928,436.863,357.409,436.863,357.409z"
				/>
		</g>
		<g>
			<defs>
				<path id="XMLID_15_" d="M454.54,157.381c4.487,9.361,3.158,19.332-2.97,22.269c-6.127,2.937-14.733-2.271-19.22-11.632
					c-4.487-9.361-3.158-19.332,2.969-22.269C441.447,142.812,450.052,148.019,454.54,157.381z"/>
			</defs>
			<use xlink:href="#XMLID_15_"  style="overflow:visible;fill:#FECEAC;"/>
			<clipPath id="XMLID_00000086671163085640273340000011419823495670496437_">
				<use xlink:href="#XMLID_15_"  style="overflow:visible;"/>
			</clipPath>
			<path style="clip-path:url(#XMLID_00000086671163085640273340000011419823495670496437_);fill:#DA6354;" d="M428.547,154.512
				c0.228-0.456,3.076-1.595,7.063,0.342c3.987,1.937,4.101-6.38,7.861-5.355c3.759,1.025,8.43,4.215,9,7.747
				c0.57,3.532,2.506,1.253,2.05-2.506c-0.456-3.76-13.329-13.557-13.329-13.557l-9.911,2.392L428.547,154.512z"/>
		</g>
		<path style="fill:#FECEAC;" d="M457.028,162.942c2.553,7.658,7.869,24.295,15.038,25.291c12.304,1.709-27.683,4.101-27.683,4.101
			s10.595-7.177,3.759-16.747C441.306,166.018,457.028,162.942,457.028,162.942z"/>
		<path style="fill:#83B3AD;" d="M415.546,208.433c-0.246-0.022-0.385-0.035-0.385-0.035
			C415.32,208.472,415.444,208.475,415.546,208.433z"/>
		<path style="fill:#FECEAC;" d="M459.42,159.61c0,2.595-1.148,4.699-2.563,4.699s-2.563-2.104-2.563-4.699
			c0-2.595,1.147-4.699,2.563-4.699S459.42,157.015,459.42,159.61z"/>
		<path style="fill:#383838;" d="M433.762,166.409c-0.067-0.538,0.004-1.09,0.191-1.612c0.184-0.519,0.537-1.023,1.061-1.301
			c0.526-0.269,1.139-0.274,1.66-0.109c0.262,0.078,0.503,0.208,0.742,0.324c0.222,0.154,0.442,0.305,0.645,0.475
			c-0.26-0.062-0.503-0.143-0.743-0.222c-0.247-0.05-0.488-0.117-0.726-0.151c-0.479-0.063-0.941-0.023-1.325,0.18
			c-0.39,0.195-0.692,0.565-0.931,0.991C434.101,165.417,433.918,165.899,433.762,166.409z"/>
		<path style="fill:#383838;" d="M441.72,162.124c-0.067-0.538,0.004-1.09,0.191-1.611c0.184-0.519,0.537-1.023,1.061-1.301
			c0.526-0.269,1.139-0.274,1.66-0.109c0.262,0.078,0.503,0.208,0.742,0.324c0.222,0.153,0.442,0.305,0.645,0.475
			c-0.26-0.062-0.503-0.143-0.743-0.222c-0.247-0.05-0.488-0.117-0.726-0.151c-0.478-0.064-0.941-0.023-1.325,0.18
			c-0.39,0.195-0.692,0.565-0.931,0.991C442.059,161.132,441.876,161.614,441.72,162.124z"/>
		<g>
			<path style="fill:#915036;" d="M444.155,169.436c-0.767,0.256-1.591,0.424-2.458,0.232c-0.423-0.089-0.91-0.364-1.123-0.863
				c-0.175-0.454-0.193-0.86-0.237-1.275c-0.073-1.641,0.105-3.244,0.514-4.816c0.129,1.614,0.079,3.214,0.168,4.772
				c0.023,0.378,0.056,0.785,0.156,1.083c0.082,0.264,0.342,0.458,0.676,0.59C442.534,169.4,443.353,169.437,444.155,169.436z"/>
		</g>
		<path style="fill:#FECEAC;" d="M406.674,234.372c-0.342-0.228-1.367-3.987,1.823-6.38c3.19-2.392,6.266,2.962,5.24,4.101
			c-1.025,1.139-1.025,5.582-2.734,4.785C409.294,236.081,406.674,234.372,406.674,234.372z"/>
		<path style="fill:#FECEAC;" d="M510.26,222.774c0.325-0.252,4.215-0.029,5.47,3.756c1.255,3.785-4.8,5-5.554,3.665
			c-0.754-1.334-4.967-2.746-3.668-4.113C507.807,224.715,510.26,222.774,510.26,222.774z"/>
		<path style="fill:#D17270;" d="M443.445,188.581c0,0,15.726,13.978,26.744-1.305c0,0,15.915-7.325,27.546-6.713
			c0,0-0.612,20.812,3.061,22.649c0,0-12.242,1.836-14.079,4.285c-1.836,2.449-3.673,55.703,0.612,68.558c0,0-19.588-5.509-28.158,0
			c-8.57,5.509-19.588,0-19.588,0s5.509-18.364-3.061-37.952s-7.345-29.382-7.345-29.382l-14.079,2.448
			c0,0-1.836-18.976-3.673-22.036C409.589,186.072,438.125,184.969,443.445,188.581z"/>
		<path style="fill:#DA6354;" d="M454.54,157.381c0,0,7.692,12.164,7.08,14.001c-0.612,1.836-11.63,15.915-15.915,14.691
			c-4.285-1.224-8.57-5.509-9.182-6.733c-0.612-1.224-2.011-7.575-2.011-7.575s9.765,0.433,12.621-3.647
			C449.99,164.036,454.54,157.381,454.54,157.381z"/>
		<path style="fill:#FFFFFF;" d="M440.833,173.997c0,0,6.628,1.077,8.644-5.299C449.477,168.699,453.305,183.437,440.833,173.997z"
			/>
	</g>
	<g>
		<g>
			<g>
				<g>
					
						<rect x="223.133" y="217.452" transform="matrix(0.9992 -0.0408 0.0408 0.9992 -9.229 9.3036)" style="fill:#38383A;" width="0.546" height="26.78"/>
				</g>
				<path style="fill:#EBC061;" d="M220.448,214.378c-0.501-1.21-3.504-7.261-3.504-7.261l5.506,7.261l1.502-9.682v9.682
					l3.504-4.841l-1.502,6.656l9.511,1.815h-9.511l4.505,9.077l-7.008-9.077l-0.501,9.077l-1.001-9.682l-6.507,9.682l4.505-9.682
					l-8.51-2.42L220.448,214.378z"/>
			</g>
			<g>
				<g>
					
						<rect x="374.154" y="241.621" transform="matrix(0.3125 -0.9499 0.9499 0.3125 36.657 534.4373)" style="fill:#38383A;" width="26.78" height="0.546"/>
				</g>
				<path style="fill:#EBC061;" d="M390.553,225.44c-0.044-1.309-0.732-8.029-0.732-8.029l2.607,8.732l4.804-8.539l-3.398,9.066
					l4.98-3.303l-3.742,5.706l8.268,5.038l-8.906-3.338l1.033,10.08l-3.376-10.959l-3.654,8.323l2.461-9.417l-9.491,6.782
					l7.617-7.485l-7.119-5.253L390.553,225.44z"/>
			</g>
			<path style="fill:#38383A;" d="M273.036,180.175c-0.268,0.448-5.813,2.607-3.473,8.868c2.339,6.261,6.459,7.506,6.459,7.506
				l2.211-13.877L273.036,180.175z"/>
			<path style="fill:#A56F6F;" d="M281.447,216.688c0,0-1.773,8.506-8.991,8.63c-0.379,0.006-0.772-0.01-1.181-0.052
				c-8.209-0.843,12.736,14.913,12.736,14.913l9.423-1.134l8.129-9.838l-6.216-2.274c0,0-7.317-3.264-2.776-18.393
				C297.111,193.412,281.447,216.688,281.447,216.688z"/>
			<path style="fill:#A56F6F;" d="M280.708,177.693c0,0-10.055,12.424-9.82,27.244c0.102,6.415,4.667,11.923,10.981,13.06
				c0.081,0.014,0.162,0.029,0.243,0.042c8.176,1.383,15.743-7.099,17.935-15.792C302.239,193.555,296.973,173.906,280.708,177.693z
				"/>
			<path style="fill:#38383A;" d="M293.285,191.055c0,0-25.957-0.307-22.501-18.304c3.456-17.997,20.86,2.734,20.86,2.734
				s0.965-9.758,7.058-6.727c6.092,3.031,6.035,19.411,6.035,19.411s12.266,1.856,7.629,10.636
				c-4.637,8.78-15.478,16.899-20.121,15.947c0,0,0.367-2.215,1.793-5.619c0,0,5.632-3.323,4.463-6.453
				c-1.17-3.13-3.043,0.006-3.043,0.006S291.063,198.846,293.285,191.055z"/>
			<path style="fill:#A56F6F;" d="M249.45,243.061c0,0-8.924,31.681-8.924,36.143s-12.749-22.311-12.749-29.323
				c0,0-0.637,1.275,0-3.187c0.637-4.462-4.462-11.474-6.374-7.649c-1.912,3.825,2.55,12.112,2.55,12.112s0,37.609,16.574,44.621
				c16.574,7.012,19.124-45.896,19.124-45.896L249.45,243.061z"/>
			<path style="fill:#A56F6F;" d="M304.27,244.782c1.275,1.275,32.51,24.223,73.307,16.574c0,0,3.825,1.275,7.012-1.912
				c3.187-3.187,3.825-12.749,1.912-11.474c-1.912,1.275-8.924,5.737-8.924,5.737s-42.709,3.825-60.558-17.211L304.27,244.782z"/>
			<g>
				<defs>
					<path id="XMLID_7_" d="M352.677,412.661c0.161,0.593,11.36,9.003,11.36,9.003s5.763,1.296,6.678,2.32
						c0.915,1.024-13.321,25.901-14.02,24.5c-0.699-1.401,2.922-20.844,2.545-21.06c-0.377-0.216-11.092-6.848-11.092-6.848
						L352.677,412.661z"/>
				</defs>
				<use xlink:href="#XMLID_7_"  style="overflow:visible;fill:#A56F6F;"/>
				<clipPath id="XMLID_00000052788013863629470970000002720078920654085556_">
					<use xlink:href="#XMLID_7_"  style="overflow:visible;"/>
				</clipPath>
				<path style="clip-path:url(#XMLID_00000052788013863629470970000002720078920654085556_);fill:#F4EAE9;" d="M358.411,416.193
					c0,0-4.691,7.323-7.17,9.906c-2.479,2.584-0.662,25.639-0.662,25.639l8.992,6.146l17.042-33.278l-3.227-8.351L358.411,416.193z"
					/>
				<path style="clip-path:url(#XMLID_00000052788013863629470970000002720078920654085556_);fill:#563219;" d="M363.688,419.212
					c0,0,0.482,5.279-7.547,9.691c-8.029,4.412-0.985,24.454-0.985,24.454l20.594-27.243L363.688,419.212z"/>
			</g>
			<g>
				<defs>
					<path id="XMLID_8_" d="M279.193,430.74c-0.046,0.612,7.706,12.276,7.706,12.276s5,3.144,5.521,4.415
						s-21.198,19.974-21.39,18.42c-0.192-1.554,9.707-18.675,9.424-19.004c-0.283-0.329-8.172-10.155-8.172-10.155L279.193,430.74z"
						/>
				</defs>
				<use xlink:href="#XMLID_8_"  style="overflow:visible;fill:#A56F6F;"/>
				<clipPath id="XMLID_00000113350735392849933870000018432629865129054857_">
					<use xlink:href="#XMLID_8_"  style="overflow:visible;"/>
				</clipPath>
				<path style="clip-path:url(#XMLID_00000113350735392849933870000018432629865129054857_);fill:#F4EAE9;" d="M283.421,435.982
					c0,0-6.865,5.339-10.064,6.947c-3.199,1.609-9.177,23.95-9.177,23.95l6.426,8.793l27.167-25.687l-0.256-8.949L283.421,435.982z"
					/>
				<path style="clip-path:url(#XMLID_00000113350735392849933870000018432629865129054857_);fill:#563219;" d="M287.388,440.589
					c0,0-1.307,5.137-10.348,6.618c-9.04,1.481-9.086,22.725-9.086,22.725l28.501-18.813L287.388,440.589z"/>
			</g>
			<path style="fill:#8D4063;" d="M271.123,340.399c0,0-6.794,7.395-10.822,23.507c-4.028,16.112,20.14,57.197,21.751,65.253
				c0,0-8.056,10.473-14.501,8.056c-6.445-2.417-37.863-53.169-37.863-69.281s20.744-50.728,27.41-68.332
				c5.1-13.47,23.212-20.142,43.482,13.551c4.643,7.718,5.639,50.753,5.639,58.809c0,8.056,45.113,30.613,49.947,41.891
				l-6.445,9.667c0,0-55.586-22.557-62.836-44.308C279.636,357.462,271.929,353.289,271.123,340.399z"/>
			<path style="fill:#EBC061;" d="M324.56,258.439C324.623,258.469,324.654,258.469,324.56,258.439L324.56,258.439z"/>
			<path style="fill:#EBC061;" d="M325.306,258.806l4.462-17.848c0,0-16.599-6.549-19.821-9.771
				c-1.382-1.382-7.947-3.799-16.012-5.349c-1.736,3.034-3.981,5.174-10.063,6.833c-6.522,1.779-7.896-6.917-8.056-8.141
				c-5.194,0.399-12.862,1.562-16.167,4.316c-11.474,9.562-12.749,20.398-12.749,20.398l7.461,7.721l2.738,42.637
				c0,0,31.466,13.59,39.522,9.562c0,0-1.885-36.257,10.199-58.008c0,0,10.201,7.033,16.574,8.287
				c0.723,0.142,1.046,0.231,1.166,0.27C324.385,259.63,323.964,259.319,325.306,258.806z"/>
		</g>
		<path style="fill:#383838;" d="M275.178,196.875c0.333-0.456,0.781-0.823,1.295-1.085c0.51-0.262,1.137-0.392,1.733-0.229
			c0.591,0.172,1.059,0.606,1.336,1.102c0.143,0.246,0.232,0.517,0.331,0.775c0.059,0.275,0.117,0.546,0.15,0.82
			c-0.153-0.232-0.279-0.467-0.405-0.699c-0.152-0.214-0.287-0.437-0.443-0.633c-0.317-0.39-0.697-0.689-1.133-0.81
			c-0.435-0.131-0.928-0.066-1.414,0.087C276.143,196.365,275.66,196.599,275.178,196.875z"/>
		<path style="fill:#383838;" d="M284.74,198.788c0.333-0.456,0.781-0.823,1.295-1.085c0.51-0.262,1.137-0.392,1.733-0.229
			c0.591,0.172,1.059,0.606,1.336,1.103c0.143,0.246,0.232,0.517,0.331,0.775c0.059,0.275,0.118,0.546,0.15,0.82
			c-0.153-0.232-0.279-0.467-0.405-0.699c-0.152-0.214-0.287-0.437-0.443-0.633c-0.317-0.39-0.697-0.689-1.133-0.81
			c-0.435-0.131-0.928-0.066-1.414,0.087C285.705,198.277,285.222,198.512,284.74,198.788z"/>
		<path style="fill:#753838;" d="M281.934,206.232c-0.837-0.09-1.69-0.288-2.427-0.847c-0.361-0.268-0.703-0.74-0.689-1.304
			c0.031-0.506,0.191-0.898,0.329-1.31c0.318-0.797,0.698-1.548,1.131-2.269c0.426-0.724,0.908-1.414,1.445-2.067
			c-0.297,0.79-0.613,1.563-0.951,2.321c-0.327,0.762-0.672,1.513-0.961,2.269c-0.142,0.368-0.288,0.767-0.322,1.093
			c-0.037,0.285,0.125,0.582,0.384,0.852C280.415,205.495,281.174,205.885,281.934,206.232z"/>
		<path style="fill:#FFFFFF;" d="M275.534,207.59c0,0,4.834,4.459,9.428,1.972C284.962,209.563,281.176,220.231,275.534,207.59z"/>
	</g>
	<g>
		<g>
			<path style="fill:#38383A;" d="M117.082,339.572c0,0-0.032-3.707-2.41-3.84c-2.378-0.133-3.783,0.763-4.704,2.454
				c-0.92,1.691,0.32,7.024-0.718,9.168c-1.037,2.144,0.606,8.841,4.925,7.064c4.319-1.776-4.204-5.913,2.516-13.339
				L117.082,339.572z"/>
			<path style="fill:#38383A;" d="M146.141,426.321c0,0-2.889,9.486,1.136,15.893c2.068,3.294-4.971,3.319-7.617,0.023
				c-2.646-3.296-0.31-12.016-0.31-12.016s-0.408-4.895,4.112-4.685L146.141,426.321z"/>
			<g>
				<g>
					
						<rect x="54.98" y="220.228" transform="matrix(0.6838 -0.7297 0.7297 0.6838 -153.6382 114.4886)" style="fill:#38383A;" width="0.582" height="28.549"/>
				</g>
				<path style="fill:#EBC061;" d="M40.716,224.2c-1.285-0.546-8.091-2.9-8.091-2.9l9.613,1.403l-6.096-8.481l7.237,7.359
					l-0.955-6.299l3.834,6.182l8.586-5.73l-7.229,7.11l10.209,3.531l-12.111-1.66l6.405,7.273l-7.998-6.61L46.41,237.6
					l-3.813-10.726l-8.277,4.522L40.716,224.2z"/>
			</g>
			<path style="fill:#5D344F;" d="M138.123,214.569c0,0-2.785-3.382,2.651-8.139c5.436-4.757,10.873-13.591,2.039-13.591
				c-8.834,0-22.426-10.873-28.542-5.437c-6.116,5.437-18.348,0.68-15.63,7.475c2.718,6.796-8.834,16.31-2.718,21.066
				c6.116,4.757,9.514,7.475,9.514,13.591c0,6.116,10.193,12.912,13.591,2.039c3.398-10.873,10.873-12.232,13.591-12.912
				C135.337,217.982,138.123,214.569,138.123,214.569z"/>
			<path style="fill:#C64D43;" d="M176.1,339.056c0.435,1.327-1.537,16.818-1.537,16.818s-18.845,6.844-37.642-5.874
				c-18.797-12.719-27.586-31.22-27.586-31.22S171.746,325.788,176.1,339.056z"/>
			<path style="fill:#FECEAC;" d="M147.734,322.414c0.946,1.745-4.202,33.893-2.709,38.729c1.493,4.836-5.083,18.112-3.437,38.221
				c1.646,20.109-0.751,28.183-0.751,28.183s2.511,3.381,4.546,0.471c2.035-2.91,13.141-48.225,14.591-58.044
				c1.45-9.819,17.227-21.536,14.673-39.571C172.093,312.366,147.734,322.414,147.734,322.414z"/>
			<path style="fill:#FECEAC;" d="M134.086,299.329c0,0,1.547,41.164,2.569,50.545c0,0-9.496-10.432-21.498-13.408
				c0,0-2.653,3.02-1.707,4.764c0.946,1.745,22.449,25.99,25.868,27.298c3.419,1.308,19.676,6.718,17.036-40.627
				C153.714,280.556,134.086,299.329,134.086,299.329z"/>
			<g>
				<path style="fill:#FECEAC;" d="M144.985,369.033c5.863-2.669,9.417-7.395,12.067-13.101c2.668-5.745,4.522-12.015,4.847-18.361
					c0.012-0.238-0.358-0.232-0.37,0.005c-0.321,6.274-2.164,12.499-4.801,18.178c-2.621,5.643-6.124,10.319-11.936,12.964
					C144.574,368.815,144.77,369.13,144.985,369.033L144.985,369.033z"/>
			</g>
			<path style="fill:#FECEAC;" d="M151.977,220.301c0,0,19.359-14.828,21.684-19.701c2.325-4.874,21.138-18.741,22.954-22.887
				c1.816-4.146,1.145-13.967,0.638-15.277c-0.356-0.921-2.251-11.85-1.523-11.342c0.727,0.509,2.86,6.591,4.285,10.273
				c1.155,2.985,0.014,6.816,0.96,8.561c0.946,1.745,1.997-6.728,2.725-6.219c0.727,0.509,2.658,7.817,1.132,10
				c-1.526,2.182-5.197,6.657-5.197,6.657s-11.19,24.96-26.458,39.438c-3.957,3.752-6.03,9.081-5.732,14.526
				c0.259,4.735,2.591,12.769,4.295,15.512c3.566,5.744-29.775,21.956-29.775,21.956s-1.389-15.054-9.681-18.687
				c0,0-27.883,18.959-35.738,17.799c-7.855-1.16-28.702-21.696-28.702-21.696l2.035-2.91c0,0,24.517,16.062,28.007,14.169
				c0,0,25.867-24.3,29.309-25.885c3.442-1.585,3.442-1.585,3.442-1.585s8.944-3.495,0.832-9.71l1.959-10.547
				C133.428,212.746,143.181,228.233,151.977,220.301z"/>
			<g>
				<defs>
					<path id="XMLID_4_" d="M152.486,219.574c0,0,10.409,19.196,16.738,22.538c6.329,3.342,23.952,52.499,16.621,83.121
						c-7.331,30.622-11.15,30.66-11.15,30.66s1.483-16.837-16.262-16.247c-17.745,0.59-55.277-6.156-55.795-27.102
						c0,0,66.098-26.358,23.383-76.812c0,0,2.653-3.02,4.617-2.73c1.964,0.29,8.987,11.16,14.879,12.03
						c5.891,0.87,14.978-9.025,2.462-22.111C147.978,222.921,150.632,219.902,152.486,219.574z"/>
				</defs>
				<use xlink:href="#XMLID_4_"  style="overflow:visible;fill:#FC5673;"/>
				<clipPath id="XMLID_00000119111280688483719940000016737967137032928666_">
					<use xlink:href="#XMLID_4_"  style="overflow:visible;"/>
				</clipPath>
			</g>
			
				<ellipse transform="matrix(0.5994 -0.8004 0.8004 0.5994 -119.3906 182.6455)" style="fill:#FECEAC;" cx="122.785" cy="210.605" rx="12.343" ry="16.787"/>
			<path style="fill:#FECEAC;" d="M70.418,247.627c0,0,0.732-6.063-3.595-7.189c-4.327-1.125-8.789,0.869-8.464,4.165
				c0.326,3.296,5.954-0.367,7.949,4.096l3.228,1.234L70.418,247.627z"/>
			<path style="fill:#5D344F;" d="M118.348,198.275c0,0,0,12.912-7.475,14.271c0,0,11.415,9.714,6.387,10.293
				c-5.028,0.58-13.183-8.255-13.183-8.255l-1.359-13.591l8.155-8.155l10.194,1.359c0,0,9.514,4.757,10.193,6.116
				C131.94,201.673,118.348,198.275,118.348,198.275z"/>
			<path style="fill:#FECEAC;" d="M135.136,200.45c0.732,1.522,0.502,3.152-0.513,3.639c-1.015,0.488-2.431-0.351-3.162-1.873
				c-0.732-1.522-0.502-3.152,0.513-3.639C132.989,198.089,134.405,198.928,135.136,200.45z"/>
			<path style="fill:#FECEAC;" d="M117.343,219.712c1.663,0.293,2.853,1.43,2.658,2.539c-0.196,1.109-1.702,1.77-3.366,1.477
				c-1.663-0.293-2.853-1.43-2.658-2.539C114.173,220.08,115.68,219.419,117.343,219.712z"/>
		</g>
		<path style="fill:#383838;" d="M127.887,203.172c-0.556-0.111-1.137-0.079-1.697,0.076c-0.555,0.152-1.109,0.482-1.439,1.008
			c-0.321,0.529-0.373,1.168-0.24,1.724c0.061,0.279,0.179,0.541,0.281,0.799c0.143,0.244,0.284,0.485,0.446,0.709
			c-0.045-0.276-0.111-0.536-0.174-0.792c-0.033-0.262-0.084-0.519-0.102-0.769c-0.03-0.504,0.048-0.984,0.289-1.369
			c0.233-0.392,0.643-0.679,1.106-0.896C126.825,203.449,127.343,203.295,127.887,203.172z"/>
		<path style="fill:#383838;" d="M122.104,212.441c-0.556-0.111-1.137-0.079-1.696,0.076c-0.556,0.152-1.109,0.482-1.439,1.008
			c-0.321,0.529-0.373,1.168-0.241,1.724c0.061,0.279,0.179,0.541,0.281,0.799c0.143,0.244,0.284,0.484,0.446,0.709
			c-0.045-0.276-0.111-0.536-0.174-0.793c-0.033-0.262-0.084-0.518-0.102-0.769c-0.029-0.504,0.048-0.984,0.289-1.369
			c0.233-0.392,0.643-0.679,1.106-0.896C121.042,212.718,121.559,212.564,122.104,212.441z"/>
		<path style="fill:#E2A77F;" d="M128.04,214.68c0.365-0.415,0.689-0.889,0.798-1.486c0.056-0.29,0.012-0.67-0.245-0.936
			c-0.24-0.231-0.49-0.35-0.74-0.488c-0.507-0.244-1.024-0.439-1.553-0.596c-0.527-0.161-1.066-0.281-1.615-0.359
			c0.494,0.25,0.99,0.484,1.489,0.7c0.496,0.223,0.996,0.434,1.471,0.671c0.232,0.115,0.479,0.244,0.641,0.386
			c0.144,0.121,0.198,0.337,0.192,0.582C128.448,213.65,128.253,214.175,128.04,214.68z"/>
		<path style="fill:#FFFFFF;" d="M133.541,211.35c0,0-0.552,6.586-5.643,7.864C127.898,219.213,137.947,224.545,133.541,211.35z"/>
	</g>
	<g>
		<path style="fill:#38383A;" d="M623.828,195.203c0,0-2.354-3.923,0-7.061c0,0-2.354-3.138,2.354-6.277
			c0,0,3.923-7.846,10.984-3.138c0,0,4.707-6.277,7.846,0c0,0,10.2,0,7.061,4.708c0,0,7.846,3.138,4.707,7.061
			c0,0,6.277,3.923,1.569,7.846c0,0,2.354,9.415-3.923,10.2c0,0,1.569,6.277-3.923,4.708c0,0-7.061,7.061-8.631,3.138
			c0,0-4.707,3.923-5.492-0.785c0,0-7.832,6.015-7.054-0.131C630.105,209.326,619.905,199.911,623.828,195.203z"/>
		<g>
			<defs>
				<path id="XMLID_21_" d="M615.3,283.152c0,0,26.513,17.249,15.013,40.568c-11.499,23.318-29.707,44.72-29.707,44.72
					s16.61,5.43,19.166,59.095c0,0,2.715,3.673,1.917,5.43c-0.798,1.757-4.626,1.382-5.111,5.75
					c-0.479,4.312-7.986,3.673-7.027,2.555c0.958-1.118,7.347-6.389,7.826-13.256l-27.79-59.574c0,0,3.514-39.29,12.458-56.06
					C610.987,295.61,615.3,283.152,615.3,283.152z"/>
			</defs>
			<use xlink:href="#XMLID_21_"  style="overflow:visible;fill:#A56F6F;"/>
			<clipPath id="XMLID_00000111175145513331534160000001093649871251702176_">
				<use xlink:href="#XMLID_21_"  style="overflow:visible;"/>
			</clipPath>
			<path style="clip-path:url(#XMLID_00000111175145513331534160000001093649871251702176_);fill:#2D6C8C;" d="M601.321,412.431
				c1.275-0.638,24.223,0.637,21.036-19.761c-3.187-20.398,0-36.335,0-36.335l26.135-33.785l-1.275-26.773l-46.34-3.192
				l-19.317,19.128l-8.924,40.159l4.462,36.334l12.749,19.761L601.321,412.431z"/>
		</g>
		<g>
			<defs>
				<path id="XMLID_19_" d="M608.021,282.208c0,0,7.391,30.754-16.992,39.78c-24.383,9.025-52.319,12.047-52.319,12.047
					s8.327,15.364-26.715,56.088c0,0-0.554,4.534-2.342,5.261c-1.788,0.727-4.309-2.177-7.664,0.661
					c-3.313,2.802-8.324-2.823-6.86-2.976c1.465-0.153,9.727,0.413,14.797-4.245l20.782-62.366c0,0,29.566-26.113,47.591-32.141
					C596.324,288.289,608.021,282.208,608.021,282.208z"/>
			</defs>
			<use xlink:href="#XMLID_19_"  style="overflow:visible;fill:#A56F6F;"/>
			<clipPath id="XMLID_00000095299739967016766730000018044437438802521000_">
				<use xlink:href="#XMLID_19_"  style="overflow:visible;"/>
			</clipPath>
			<path style="clip-path:url(#XMLID_00000095299739967016766730000018044437438802521000_);fill:#2D6C8C;" d="M513.354,362.71
				c0,0,0.25,0.435,0.717,1.14c2.779,4.198,13.228,17.971,24.143,6.509c12.749-13.386,31.872-33.785,31.872-33.785l61.833-19.761
				l-16.574-42.072l-49.721-1.275l-47.171,30.598"/>
		</g>
		<path style="fill:#A56F6F;" d="M640.848,239.233c0,0,22.972-0.873,34.957-9.595c0,0,10.297-17.366,10.297-40.314h-1.912
			c0,0-12.749,19.761-12.775,32.227c0,0-29.285-1.132-38.496,4.94C623.708,232.562,640.848,239.233,640.848,239.233z"/>
		<path style="fill:#A56F6F;" d="M604.604,229.65c0,0-22.972-0.873-34.957-9.595c0,0-34.188-13.257-38.701-20.754l-0.449-2.704
			c0,0,34.13,7.288,43.541,15.371c0,0,29.285-1.132,38.496,4.939C621.745,222.979,604.604,229.65,604.604,229.65z"/>
		<path style="fill:#A56F6F;" d="M530.497,196.598l-17.112,14.735c0,0,9.283-0.987,11.798-6.317c0,0,1.726,7.715,2.431,4.597
			c0.705-3.118,0.042-4.964,0.042-4.964s2.077-0.745,3.29-5.348"/>
		<g>
			<defs>
				<path id="XMLID_20_" d="M623.924,280.277c0,0-2.556-19.965,19.645-42.644l-0.24-10.541l-35.217-11.26
					c0,0-5.174,15.017-9.104,19.166c-4.312,4.552-3.115,16.051,5.271,13.416l7.187,28.509L623.924,280.277z"/>
			</defs>
			<use xlink:href="#XMLID_20_"  style="overflow:visible;fill:#995042;"/>
			<clipPath id="XMLID_00000174568335155537590670000013594129908097377435_">
				<use xlink:href="#XMLID_20_"  style="overflow:visible;"/>
			</clipPath>
			<path style="clip-path:url(#XMLID_00000174568335155537590670000013594129908097377435_);fill:#995042;" d="M623.632,263.809
				c0,1.036,0.912,1.877,2.036,1.877c1.125,0,2.036-0.84,2.036-1.877c0-1.036-0.912-1.877-2.036-1.877
				C624.543,261.932,623.632,262.773,623.632,263.809z"/>
			<path style="clip-path:url(#XMLID_00000174568335155537590670000013594129908097377435_);fill:#995042;" d="M620.996,261.533
				c0,1.036,0.912,1.877,2.036,1.877c1.125,0,2.036-0.84,2.036-1.877s-0.912-1.877-2.036-1.877
				C621.908,259.656,620.996,260.497,620.996,261.533z"/>
			<path style="clip-path:url(#XMLID_00000174568335155537590670000013594129908097377435_);fill:#995042;" d="M617.642,260.335
				c0,1.036,0.912,1.877,2.036,1.877c1.125,0,2.036-0.84,2.036-1.877c0-1.036-0.912-1.877-2.036-1.877
				C618.554,258.459,617.642,259.299,617.642,260.335z"/>
			<path style="clip-path:url(#XMLID_00000174568335155537590670000013594129908097377435_);fill:#995042;" d="M614.281,259.254
				c0,1.036,0.912,1.877,2.036,1.877c1.125,0,2.036-0.84,2.036-1.877c0-1.036-0.912-1.877-2.036-1.877
				C615.193,257.378,614.281,258.218,614.281,259.254z"/>
			<path style="clip-path:url(#XMLID_00000174568335155537590670000013594129908097377435_);fill:#995042;" d="M610.688,258.656
				c0,1.036,0.912,1.877,2.036,1.877c1.125,0,2.036-0.84,2.036-1.877s-0.912-1.877-2.036-1.877
				C611.6,256.779,610.688,257.619,610.688,258.656z"/>
			<path style="clip-path:url(#XMLID_00000174568335155537590670000013594129908097377435_);fill:#995042;" d="M606.795,259.135
				c0,1.036,0.912,1.877,2.036,1.877c1.125,0,2.036-0.84,2.036-1.877c0-1.036-0.912-1.877-2.036-1.877
				C607.706,257.258,606.795,258.098,606.795,259.135z"/>
		</g>
		<path style="fill:#A56F6F;" d="M633.667,228.529c0,0,2.875-4.153,2.396-3.993c-0.479,0.16-8.305-7.826-4.951-17.249l-6.708-1.917
			c0,0-4.632,17.09-16.291,10.461l9.743,15.572L633.667,228.529z"/>
		<path style="fill:#A56F6F;" d="M619.963,209.164c2.756,4.774,11.091,5.123,18.615,0.779c7.525-4.344,11.39-11.736,8.633-16.511
			c-2.757-4.774-11.091-5.123-18.615-0.779C621.071,196.997,617.206,204.389,619.963,209.164z"/>
		<g>
			<path style="fill:#FFFFFF;" d="M629.993,206.489c0,0-5.909-2.076-5.43-7.986C624.563,198.503,615.459,210.322,629.993,206.489z"
				/>
			<path style="fill:#A01313;" d="M629.969,206.488c-0.805-0.203-1.612-0.647-2.329-1.134c-0.727-0.497-1.364-1.126-1.902-1.831
				c-0.535-0.709-0.916-1.541-1.098-2.407c-0.226-0.862-0.189-1.751-0.155-2.619l0.141,0.055c-0.833,1.099-1.529,2.317-2.035,3.591
				c-0.255,0.635-0.465,1.288-0.561,1.947c-0.09,0.65-0.063,1.338,0.28,1.844c0.335,0.509,0.934,0.798,1.572,0.939
				c0.641,0.142,1.325,0.173,2.005,0.143c0.341-0.014,0.683-0.031,1.024-0.079c0.342-0.033,0.685-0.065,1.026-0.124
				C628.646,206.695,629.23,206.628,629.969,206.488z M630.017,206.49c-0.315,0.086-0.639,0.208-0.997,0.323
				c-0.365,0.126-0.688,0.182-1.033,0.27c-0.679,0.166-1.371,0.29-2.075,0.347c-0.701,0.068-1.421,0.079-2.138-0.07
				c-0.705-0.131-1.461-0.482-1.89-1.157c-0.423-0.679-0.409-1.484-0.293-2.184c0.126-0.713,0.386-1.379,0.687-2.014
				c0.627-1.262,1.406-2.418,2.221-3.55l0.148-0.206l-0.007,0.26c-0.022,0.855,0.023,1.721,0.307,2.523
				c0.253,0.805,0.625,1.568,1.132,2.24c0.482,0.69,1.091,1.288,1.751,1.824C628.506,205.634,629.21,206.066,630.017,206.49z"/>
		</g>
		<path style="fill:#38383A;" d="M636.052,202.379c-0.273-0.785-0.489-1.465-0.856-2.018c-0.175-0.281-0.399-0.509-0.667-0.723
			c-0.266-0.225-0.599-0.376-0.967-0.596c0.399-0.11,0.849-0.123,1.261,0.048c0.417,0.147,0.8,0.451,1.038,0.832
			c0.245,0.377,0.379,0.807,0.406,1.23C636.296,201.574,636.243,201.998,636.052,202.379z"/>
		<path style="fill:#38383A;" d="M631.855,197.115c-0.002-0.831,0.016-1.545-0.151-2.186c-0.074-0.323-0.211-0.611-0.395-0.901
			c-0.178-0.3-0.444-0.551-0.72-0.879c0.413,0.026,0.843,0.16,1.177,0.456c0.347,0.275,0.609,0.687,0.71,1.125
			c0.109,0.437,0.095,0.887-0.018,1.295C632.348,196.433,632.16,196.817,631.855,197.115z"/>
		<g>
			<path style="fill:#894E4E;" d="M627.874,203.181c-0.471-0.54-0.87-1.166-1.004-1.938c-0.067-0.376-0.003-0.866,0.335-1.206
				c0.315-0.294,0.641-0.443,0.967-0.616c0.661-0.306,1.333-0.548,2.021-0.74c0.686-0.194,1.383-0.351,2.097-0.432
				c-0.642,0.322-1.291,0.603-1.94,0.877c-0.646,0.279-1.297,0.542-1.916,0.84c-0.302,0.144-0.625,0.306-0.836,0.486
				c-0.189,0.154-0.262,0.432-0.26,0.749C627.362,201.843,627.615,202.52,627.874,203.181z"/>
		</g>
		<g>
			<g>
				
					<rect x="683.371" y="161.356" transform="matrix(0.9992 -0.0408 0.0408 0.9992 -6.5582 28.028)" style="fill:#38383A;" width="0.546" height="26.78"/>
			</g>
			<path style="fill:#EBC061;" d="M680.686,158.283c-0.501-1.21-3.504-7.261-3.504-7.261l5.506,7.261l1.502-9.682v9.682l3.504-4.841
				l-1.502,6.656l9.511,1.815h-9.511l4.505,9.077l-7.008-9.077l-0.501,9.077l-1.001-9.682l-6.507,9.682l4.505-9.682l-8.51-2.42
				L680.686,158.283z"/>
		</g>
		<path style="fill:#A56F6F;" d="M683.689,192.213c0,0-5.874-13.088-0.774-12.451c5.1,0.637,8.287-0.637,7.649,2.55
			c-0.637,3.187-4.825,10.227-4.825,10.227L683.689,192.213z"/>
		<path style="fill:#EDD9D9;" d="M567.073,207.802c0,0,0.464-2.542,8.113,0.008c7.649,2.55,27.41-0.637,31.872,3.825
			c4.462,4.462,8.195,5.454,8.195,5.454s1.367,12.395,20.49,6.02c0,0,22.948-5.1,29.323-4.462c6.375,0.637,7.774-5.523,7.774-5.523
			s5.78,4.993,8.883,2.708c0,0,5.016,16.839-11.558,23.213c-16.574,6.374-30.598,2.55-29.96,12.112
			c0.637,9.562-5.1,27.41-9.562,31.872c-4.462,4.462-0.942,15.784-0.942,15.784s-4.795,12.264-15.631,4.615
			c-10.837-7.649-15.323-16.638-25.51-12.781c-10.187,3.857,3.837-17.817,5.112-22.916s-8.924-14.661-5.737-24.223
			c3.187-9.562-21.327-18.994-20.862-24.477C567.073,219.03,571.708,215.443,567.073,207.802z"/>
		<path style="fill:#38383A;" d="M635.744,188.049c0,0-1.275,4.462,3.825,4.462c0,0,0.638,5.737,4.462,5.737
			c0,0-1.912,1.275,0,3.825c1.912,2.55-8.287,7.012-3.187,8.924c5.1,1.912,9.562-1.912,9.562-1.912l5.737-12.111l-5.1-7.012
			l-7.649-3.825h-5.737L635.744,188.049z"/>
		<path style="fill:#A56F6F;" d="M639.342,207.361c0,0,2.575,0.359,1.797,2.156c-0.779,1.797-4.911,0.299-3.953-0.838
			C638.145,207.541,639.342,207.361,639.342,207.361z"/>
	</g>
</g>
</svg>
